<?xml version="1.0" standalone="no"?>
<!DOCTYPE svg PUBLIC "-//W3C//DTD SVG 20010904//EN"
 "http://www.w3.org/TR/2001/REC-SVG-20010904/DTD/svg10.dtd">
<svg version="1.0" xmlns="http://www.w3.org/2000/svg"
 width="768.000000pt" height="450.000000pt" viewBox="0 0 768.000000 450.000000"
 preserveAspectRatio="xMidYMid meet">

<g transform="translate(0.000000,450.000000) scale(0.100000,-0.100000)"
fill="#000000" stroke="none">
<path d="M5338 4133 c17 -2 47 -2 65 0 17 2 3 4 -33 4 -36 0 -50 -2 -32 -4z"/>
<path d="M5465 4120 c27 -12 43 -12 25 0 -8 5 -22 9 -30 9 -10 0 -8 -3 5 -9z"/>
<path d="M5208 4095 c-33 -23 -57 -60 -45 -71 2 -3 7 6 11 20 4 15 23 35 49
50 23 14 37 26 32 26 -6 0 -27 -11 -47 -25z"/>
<path d="M5543 4078 c55 -53 46 -104 -27 -149 -17 -10 -25 -19 -17 -19 24 0
91 76 91 102 0 29 -31 73 -63 90 -12 6 -5 -5 16 -24z"/>
<path d="M5328 4063 c-30 -5 -44 -29 -27 -49 13 -16 44 -17 74 -4 14 6 6 7
-22 3 -54 -7 -59 15 -10 40 33 16 32 17 -15 10z"/>
<path d="M5590 3893 c-335 -193 -315 -181 -309 -188 5 -4 605 338 624 356 28
27 -38 -8 -315 -168z"/>
<path d="M5415 4023 c45 -10 48 -12 35 -28 -7 -8 -27 -19 -44 -24 -29 -8 -28
-9 14 -7 40 1 45 4 47 26 1 29 -12 40 -47 39 -20 -1 -21 -2 -5 -6z"/>
<path d="M5160 4000 c-1 -35 78 -100 122 -100 6 0 -12 12 -41 26 -37 19 -57
36 -67 58 -7 17 -13 24 -14 16z"/>
<path d="M5375 3900 l-80 -6 75 -1 c41 -1 84 2 95 7 11 5 13 8 5 7 -8 0 -51
-4 -95 -7z"/>
<path d="M6754 3514 c-18 -14 -18 -15 4 -4 12 6 22 13 22 15 0 8 -5 6 -26 -11z"/>
<path d="M6840 3526 c0 -3 9 -10 20 -16 11 -6 20 -8 20 -6 0 3 -9 10 -20 16
-11 6 -20 8 -20 6z"/>
<path d="M6890 3496 c0 -3 14 -12 30 -21 17 -9 30 -13 30 -11 0 3 -13 12 -30
21 -16 9 -30 13 -30 11z"/>
<path d="M6684 3474 c-18 -14 -18 -15 4 -4 12 6 22 13 22 15 0 8 -5 6 -26 -11z"/>
<path d="M6785 3480 c-3 -6 1 -7 9 -4 18 7 21 14 7 14 -6 0 -13 -4 -16 -10z"/>
<path d="M6738 3454 c-38 -20 -36 -28 2 -9 17 9 30 18 30 20 0 7 -1 6 -32 -11z"/>
<path d="M6960 3456 c0 -3 14 -12 30 -21 17 -9 30 -13 30 -11 0 3 -13 12 -30
21 -16 9 -30 13 -30 11z"/>
<path d="M6614 3434 c-18 -14 -18 -15 4 -4 12 6 22 13 22 15 0 8 -5 6 -26 -11z"/>
<path d="M6674 3414 c-18 -14 -18 -15 4 -4 12 6 22 13 22 15 0 8 -5 6 -26 -11z"/>
<path d="M7030 3416 c0 -3 14 -12 30 -21 17 -9 30 -13 30 -11 0 3 -13 12 -30
21 -16 9 -30 13 -30 11z"/>
<path d="M6544 3394 c-18 -14 -18 -15 4 -4 12 6 22 13 22 15 0 8 -5 6 -26 -11z"/>
<path d="M6618 3384 c-38 -20 -36 -28 2 -9 17 9 30 18 30 20 0 7 -1 6 -32 -11z"/>
<path d="M6494 3364 c-18 -14 -18 -15 4 -4 12 6 22 13 22 15 0 8 -5 6 -26 -11z"/>
<path d="M7005 3369 c-5 -5 -19 -17 -30 -25 -17 -12 -15 -12 13 1 17 8 32 20
32 25 0 12 -2 12 -15 -1z"/>
<path d="M7105 3373 c6 -6 33 -23 60 -38 28 -16 46 -24 40 -18 -5 6 -32 23
-60 38 -27 16 -45 24 -40 18z"/>
<path d="M6554 3344 c-18 -14 -18 -15 4 -4 12 6 22 13 22 15 0 8 -5 6 -26 -11z"/>
<path d="M6424 3324 c-18 -14 -18 -15 4 -4 12 6 22 13 22 15 0 8 -5 6 -26 -11z"/>
<path d="M6918 3314 c-38 -20 -36 -28 2 -9 17 9 30 18 30 20 0 7 -1 6 -32 -11z"/>
<path d="M6807 3192 c-131 -75 -234 -138 -229 -140 4 -1 109 56 233 128 123
71 229 131 234 133 6 3 8 7 5 10 -3 4 -113 -55 -243 -131z"/>
<path d="M6484 3304 c-18 -14 -18 -15 4 -4 12 6 22 13 22 15 0 8 -5 6 -26 -11z"/>
<path d="M6580 3300 c-12 -8 -12 -10 3 -16 21 -8 35 2 21 16 -5 5 -15 6 -24 0z"/>
<path d="M6640 3293 c0 -12 3 -14 8 -6 4 6 23 13 42 16 33 4 33 4 -7 5 -35 2
-43 -1 -43 -15z"/>
<path d="M7220 3306 c0 -3 14 -12 30 -21 17 -9 30 -13 30 -11 0 3 -13 12 -30
21 -16 9 -30 13 -30 11z"/>
<path d="M6354 3284 c-18 -14 -18 -15 4 -4 12 6 22 13 22 15 0 8 -5 6 -26 -11z"/>
<path d="M6744 3293 c14 -4 2 -15 -49 -44 -37 -22 -69 -38 -70 -37 -1 2 -6 13
-9 25 -6 18 -2 22 21 26 26 4 25 4 -6 6 -31 1 -33 0 -26 -26 3 -16 10 -31 14
-36 7 -7 171 79 171 89 0 2 -15 3 -32 3 -20 -1 -26 -3 -14 -6z"/>
<path d="M6854 3274 c-18 -14 -18 -15 4 -4 12 6 22 13 22 15 0 8 -5 6 -26 -11z"/>
<path d="M6414 3264 c-18 -14 -18 -15 4 -4 12 6 22 13 22 15 0 8 -5 6 -26 -11z"/>
<path d="M6852 3162 c-100 -59 -179 -108 -174 -110 8 -2 348 191 367 209 25
25 -25 -1 -193 -99z"/>
<path d="M7290 3266 c0 -3 14 -12 30 -21 17 -9 30 -13 30 -11 0 3 -13 12 -30
21 -16 9 -30 13 -30 11z"/>
<path d="M6284 3244 c-18 -14 -18 -15 4 -4 12 6 22 13 22 15 0 8 -5 6 -26 -11z"/>
<path d="M6364 3234 c-18 -14 -18 -15 4 -4 12 6 22 13 22 15 0 8 -5 6 -26 -11z"/>
<path d="M6784 3234 c-18 -14 -18 -15 4 -4 12 6 22 13 22 15 0 8 -5 6 -26 -11z"/>
<path d="M6234 3214 c-18 -14 -18 -15 4 -4 12 6 22 13 22 15 0 8 -5 6 -26 -11z"/>
<path d="M7370 3214 c8 -10 15 -20 16 -22 1 -2 5 1 8 7 4 5 -4 15 -16 22 -22
12 -22 11 -8 -7z"/>
<path d="M4035 3208 c-11 -7 -35 -14 -54 -17 -19 -4 -36 -12 -39 -20 -3 -9 2
-11 17 -6 32 10 134 -14 149 -36 7 -11 20 -19 29 -19 19 0 153 72 153 83 0 14
-19 7 -80 -29 -71 -42 -105 -35 -36 7 25 16 46 30 46 32 0 1 -26 2 -57 2 -32
0 -69 4 -83 8 -15 4 -33 2 -45 -5z"/>
<path d="M6734 3204 c-18 -14 -18 -15 4 -4 12 6 22 13 22 15 0 8 -5 6 -26 -11z"/>
<path d="M6295 3197 c-15 -12 -16 -15 -4 -22 8 -5 11 -5 7 0 -4 4 0 14 10 21
23 18 11 18 -13 1z"/>
<path d="M6197 3194 c-4 -4 1 -13 11 -19 37 -26 112 -67 112 -62 0 3 -24 20
-54 37 -30 17 -56 35 -58 41 -2 6 -7 7 -11 3z"/>
<path d="M4291 3171 c-17 -11 -5 -31 19 -31 24 0 36 20 19 31 -8 5 -16 9 -19
9 -3 0 -11 -4 -19 -9z"/>
<path d="M6664 3164 c-18 -14 -18 -15 4 -4 12 6 22 13 22 15 0 8 -5 6 -26 -11z"/>
<path d="M6594 3124 c-18 -14 -18 -15 4 -4 12 6 22 13 22 15 0 8 -5 6 -26 -11z"/>
<path d="M7254 3124 c-18 -14 -18 -15 4 -4 12 6 22 13 22 15 0 8 -5 6 -26 -11z"/>
<path d="M6400 3116 c0 -3 9 -10 20 -16 11 -6 20 -8 20 -6 0 3 -9 10 -20 16
-11 6 -20 8 -20 6z"/>
<path d="M4177 3104 c-4 -4 -7 -11 -7 -16 0 -13 50 -6 53 7 2 12 -36 19 -46 9z"/>
<path d="M6330 3106 c0 -3 14 -12 30 -21 17 -9 30 -13 30 -11 0 3 -13 12 -30
21 -16 9 -30 13 -30 11z"/>
<path d="M6544 3094 c-18 -14 -18 -15 4 -4 12 6 22 13 22 15 0 8 -5 6 -26 -11z"/>
<path d="M6457 3079 c7 -7 15 -10 18 -7 3 3 -2 9 -12 12 -14 6 -15 5 -6 -5z"/>
<path d="M6400 3066 c0 -3 9 -10 20 -16 11 -6 20 -8 20 -6 0 3 -9 10 -20 16
-11 6 -20 8 -20 6z"/>
<path d="M7134 3054 c-18 -14 -18 -15 4 -4 12 6 22 13 22 15 0 8 -5 6 -26 -11z"/>
<path d="M6470 3026 c0 -3 9 -10 20 -16 11 -6 20 -8 20 -6 0 3 -9 10 -20 16
-11 6 -20 8 -20 6z"/>
<path d="M7064 3014 c-18 -14 -18 -15 4 -4 12 6 22 13 22 15 0 8 -5 6 -26 -11z"/>
<path d="M6520 2996 c0 -3 9 -10 20 -16 11 -6 20 -8 20 -6 0 3 -9 10 -20 16
-11 6 -20 8 -20 6z"/>
<path d="M6590 2956 c0 -3 9 -10 20 -16 11 -6 20 -8 20 -6 0 3 -9 10 -20 16
-11 6 -20 8 -20 6z"/>
<path d="M6660 2916 c0 -3 9 -10 20 -16 11 -6 20 -8 20 -6 0 3 -9 10 -20 16
-11 6 -20 8 -20 6z"/>
<path d="M6874 2904 c-18 -14 -18 -15 4 -4 12 6 22 13 22 15 0 8 -5 6 -26 -11z"/>
<path d="M6744 2865 c11 -8 27 -15 36 -15 9 0 25 7 36 15 18 14 17 14 -8 4
-22 -9 -34 -9 -55 0 -26 10 -27 10 -9 -4z"/>
<path d="M5268 2496 c-23 -17 -23 -49 0 -69 20 -19 92 -23 121 -8 13 7 32 3
70 -15 66 -30 81 -30 81 -1 0 20 4 22 51 18 36 -2 49 0 45 8 -4 6 -22 11 -40
11 -42 0 -50 9 -29 32 9 10 14 20 12 22 -2 2 -37 -1 -78 -6 -63 -9 -79 -8
-102 6 -33 19 -107 20 -131 2z m122 -6 c12 -8 12 -10 -2 -15 -9 -4 -24 -2 -34
3 -24 13 -56 3 -52 -17 2 -11 16 -17 46 -19 23 -2 40 -7 37 -13 -8 -12 -81
-12 -106 1 -24 13 -25 46 -1 59 21 13 92 14 112 1z m-40 -30 c0 -5 -9 -10 -20
-10 -11 0 -20 5 -20 10 0 6 9 10 20 10 11 0 20 -4 20 -10z"/>
<path d="M2720 1925 c-80 -47 -139 -85 -132 -85 13 0 269 144 287 161 24 24
-22 1 -155 -76z"/>
<path d="M2750 1900 c-63 -38 -119 -71 -125 -73 -5 -2 -8 -7 -5 -10 5 -6 234
123 254 143 23 23 -16 5 -124 -60z"/>
<path d="M2743 1853 c-46 -26 -83 -51 -83 -56 0 -5 10 -3 23 5 12 8 52 32 90
52 37 21 67 40 67 42 0 10 -20 1 -97 -43z"/>
<path d="M2514 1804 c-18 -14 -18 -15 5 -4 17 9 30 9 50 1 24 -11 25 -10 7 4
-25 19 -37 19 -62 -1z"/>
<path d="M2458 1774 c-38 -20 -36 -28 2 -9 17 9 30 18 30 20 0 7 -1 6 -32 -11z"/>
<path d="M2394 1734 c-18 -14 -18 -15 4 -4 12 6 22 13 22 15 0 8 -5 6 -26 -11z"/>
<path d="M2485 1700 c-50 -29 -63 -50 -35 -57 13 -4 13 -3 0 6 -13 10 -13 12
0 21 8 5 21 8 28 5 7 -3 10 -1 7 5 -3 5 8 16 25 25 27 14 33 14 60 0 37 -19
37 -28 5 -45 -14 -7 -23 -15 -21 -17 6 -7 56 28 56 38 0 9 -59 49 -70 49 -3 0
-27 -14 -55 -30z"/>
<path d="M2338 1704 c-38 -20 -36 -28 2 -9 17 9 30 18 30 20 0 7 -1 6 -32 -11z"/>
<path d="M3067 1545 c-284 -165 -336 -197 -293 -181 23 8 564 320 591 341 57
43 -30 -4 -298 -160z"/>
<path d="M2274 1666 c-10 -8 -17 -16 -14 -19 3 -2 14 4 24 14 23 22 18 25 -10
5z"/>
<path d="M2786 1663 c-6 -14 -5 -15 5 -6 7 7 10 15 7 18 -3 3 -9 -2 -12 -12z"/>
<path d="M2495 1660 c-3 -6 1 -7 9 -4 18 7 21 14 7 14 -6 0 -13 -4 -16 -10z"/>
<path d="M2480 1621 c0 -12 29 -23 42 -15 6 4 5 10 -3 15 -18 11 -39 11 -39 0z"/>
<path d="M2370 1586 c0 -3 9 -10 20 -16 11 -6 20 -8 20 -6 0 3 -9 10 -20 16
-11 6 -20 8 -20 6z"/>
<path d="M2420 1556 c0 -3 14 -12 30 -21 17 -9 30 -13 30 -11 0 3 -13 12 -30
21 -16 9 -30 13 -30 11z"/>
<path d="M2846 1331 c-3 -5 0 -11 7 -13 17 -7 38 2 31 13 -7 12 -31 12 -38 0z"/>
<path d="M4987 1084 c-3 -3 1 -24 8 -45 14 -39 14 -40 -11 -49 -14 -6 -34 -10
-44 -10 -13 0 -22 -9 -26 -25 -8 -34 -21 -31 -41 9 l-16 35 -39 -20 c-33 -17
-37 -23 -27 -35 13 -16 89 -39 160 -49 37 -5 48 -3 52 10 4 8 13 15 21 15 23
0 86 60 86 82 0 10 -5 28 -10 39 -18 33 -94 62 -113 43z"/>
<path d="M4905 1030 c-7 -12 2 -12 30 0 19 8 19 9 -2 9 -12 1 -25 -3 -28 -9z"/>
<path d="M365 941 c-74 -19 -115 -53 -115 -97 0 -72 120 -122 239 -98 17 4 31
10 31 13 0 13 -72 42 -91 36 -25 -8 -67 14 -48 26 11 6 9 12 -9 29 -27 26 -25
40 10 59 29 17 69 8 50 -11 -7 -7 -12 -15 -12 -19 0 -13 33 -19 46 -8 19 16
60 -7 44 -26 -8 -10 -3 -18 25 -35 19 -12 42 -19 50 -16 21 8 30 54 15 82 -26
48 -158 85 -235 65z"/>
<path d="M3888 499 c-49 -28 -88 -54 -88 -59 0 -11 143 -90 162 -90 18 0 248
132 248 142 0 4 -17 16 -38 27 -35 18 -43 18 -78 6 -56 -19 -54 -33 8 -38 l53
-3 -51 -2 c-42 -2 -53 -6 -57 -21 -3 -12 -15 -21 -33 -23 -23 -2 -30 -9 -32
-30 -4 -38 -22 -36 -22 2 0 29 -1 30 -51 30 -31 0 -48 4 -44 10 3 6 40 10 81
10 l74 0 0 28 c0 21 -28 62 -43 62 -1 0 -41 -23 -89 -51z"/>
<path d="M1244 366 c-36 -28 1 -44 151 -67 138 -20 185 -18 185 11 0 17 -38
29 -166 50 -145 24 -145 24 -170 6z"/>
</g>
</svg>
